# xmcd CD database file
#
# Track frame offsets:
#	150
#	14698
#	27431
#	41891
#	54966
#	67309
#	80155
#	93083
#	107388
#	122327
#	137638
#	152209
#	164877
#	178346
#	193340
#	205441
#	219848
#	232303
#	251559
#	267252
#
# Disc length: 3704 seconds
#
# Revision: 0
# Processed by: cddbd v1.5.2PL0 Copyright (c) Steve Scherf et al.
# Submitted via: CDex 1.51
#
DISCID=320e7614
DTITLE=Django Reinhart - Anthology CD1
DYEAR=2008
DGENRE=Jazz
TTITLE0=Minor swing
TTITLE1=Lady be good
TTITLE2=Believe it, Beloved
TTITLE3=Djangology
TTITLE4=Limehouse blues
TTITLE5=Charleston
TTITLE6=You re driving me crazy
TTITLE7=When day is done
TTITLE8=Libestraum
TTITLE9=Chocago
TTITLE10=Viper s dream
TTITLE11=Swinging with Django
TTITLE12=Appel Direct
TTITLE13=Swing 39
TTITLE14=Time on my hands
TTITLE15=Teh man I love
TTITLE16=Echoes of France (la Marseillaise)
TTITLE17=La mer
TTITLE18=Just a gigolo
TTITLE19=Daphné
EXTD=YEAR: 2008
EXTT0=
EXTT1=
EXTT2=
EXTT3=
EXTT4=
EXTT5=
EXTT6=
EXTT7=
EXTT8=
EXTT9=
EXTT10=
EXTT11=
EXTT12=
EXTT13=
EXTT14=
EXTT15=
EXTT16=
EXTT17=
EXTT18=
EXTT19=
PLAYORDER=
